<svg width="99" height="83" viewBox="0 0 99 83" fill="none" xmlns="http://www.w3.org/2000/svg">
<g clip-path="url(#clip0_55_109)">
<path d="M49.5 15.5625C50.3205 15.5625 51.1074 15.8358 51.6876 16.3222C52.2678 16.8086 52.5938 17.4683 52.5938 18.1562V28.5312C52.5938 29.2192 52.2678 29.8789 51.6876 30.3653C51.1074 30.8517 50.3205 31.125 49.5 31.125C48.6795 31.125 47.8926 30.8517 47.3124 30.3653C46.7322 29.8789 46.4062 29.2192 46.4062 28.5312V18.1562C46.4062 17.4683 46.7322 16.8086 47.3124 16.3222C47.8926 15.8358 48.6795 15.5625 49.5 15.5625ZM74.25 57.0625C74.25 62.5657 71.6424 67.8436 67.0009 71.735C62.3594 75.6263 56.0641 77.8125 49.5 77.8125C42.9359 77.8125 36.6406 75.6263 31.9991 71.735C27.3576 67.8436 24.75 62.5657 24.75 57.0625V25.9375C24.75 20.4343 27.3576 15.1564 31.9991 11.265C36.6406 7.37365 42.9359 5.1875 49.5 5.1875C56.0641 5.1875 62.3594 7.37365 67.0009 11.265C71.6424 15.1564 74.25 20.4343 74.25 25.9375V57.0625ZM49.5 0C41.2949 0 33.4258 2.73269 27.6239 7.59692C21.822 12.4611 18.5625 19.0584 18.5625 25.9375V57.0625C18.5625 63.9416 21.822 70.5389 27.6239 75.4031C33.4258 80.2673 41.2949 83 49.5 83C57.7051 83 65.5742 80.2673 71.3761 75.4031C77.178 70.5389 80.4375 63.9416 80.4375 57.0625V25.9375C80.4375 19.0584 77.178 12.4611 71.3761 7.59692C65.5742 2.73269 57.7051 0 49.5 0V0Z" fill="#F8F8F8"/>
</g>
<defs>
<clipPath id="clip0_55_109">
<rect width="99" height="83" fill="white"/>
</clipPath>
</defs>
</svg>
