<svg width="92" height="76" viewBox="0 0 92 76" fill="none" xmlns="http://www.w3.org/2000/svg">
<path d="M45.9999 71.7778C39.2221 71.7778 32.722 69.5536 27.9294 65.5945C23.1368 61.6354 20.4443 56.2657 20.4443 50.6667V25.3333C20.4443 19.7343 23.1368 14.3646 27.9294 10.4055C32.722 6.44643 39.2221 4.22223 45.9999 4.22223C52.7776 4.22223 59.2778 6.44643 64.0704 10.4055C68.863 14.3646 71.5554 19.7343 71.5554 25.3333V50.6667C71.5554 53.439 70.8944 56.1842 69.6101 58.7455C68.3259 61.3069 66.4434 63.6341 64.0704 65.5945C61.6973 67.5548 58.8801 69.1099 55.7796 70.1708C52.679 71.2317 49.3559 71.7778 45.9999 71.7778ZM45.9999 8.44445C40.5777 8.44445 35.3776 10.2238 31.5435 13.3911C27.7094 16.5584 25.5554 20.8541 25.5554 25.3333V50.6667C25.5554 55.1459 27.7094 59.4416 31.5435 62.6089C35.3776 65.7762 40.5777 67.5556 45.9999 67.5556C51.4221 67.5556 56.6222 65.7762 60.4563 62.6089C64.2904 59.4416 66.4443 55.1459 66.4443 50.6667V25.3333C66.4443 20.8541 64.2904 16.5584 60.4563 13.3911C56.6222 10.2238 51.4221 8.44445 45.9999 8.44445Z" fill="#F8F8F8"/>
<path d="M45.9999 31.6667C45.3221 31.6667 44.6721 31.4442 44.1928 31.0483C43.7136 30.6524 43.4443 30.1155 43.4443 29.5556V21.1111C43.4443 20.5512 43.7136 20.0142 44.1928 19.6183C44.6721 19.2224 45.3221 19 45.9999 19C46.6777 19 47.3277 19.2224 47.8069 19.6183C48.2862 20.0142 48.5554 20.5512 48.5554 21.1111V29.5556C48.5554 30.1155 48.2862 30.6524 47.8069 31.0483C47.3277 31.4442 46.6777 31.6667 45.9999 31.6667Z" fill="#F8F8F8"/>
</svg>
